<mxfile host="app.diagrams.net" modified="2023-01-06T12:10:00.967Z" agent="5.0 (X11; Linux x86_64) AppleWebKit/537.36 (KHTML, like Gecko) Chrome/107.0.0.0 Safari/537.36" etag="We7jlCLJvEkipyEN1zR5" version="20.8.1" type="github">
  <diagram id="-PLAwSELrcprytG-xbz3" name="Page-1">
    <mxGraphModel dx="1434" dy="793" grid="1" gridSize="10" guides="1" tooltips="1" connect="1" arrows="1" fold="1" page="1" pageScale="1" pageWidth="1100" pageHeight="850" math="0" shadow="0">
      <root>
        <mxCell id="0" />
        <mxCell id="1" parent="0" />
        <mxCell id="ltxL3GtnsDtMgz9R6iSV-16" style="edgeStyle=orthogonalEdgeStyle;rounded=1;orthogonalLoop=1;jettySize=auto;html=1;entryX=0;entryY=0.5;entryDx=0;entryDy=0;sketch=1;curveFitting=1;jiggle=2;" parent="1" source="ltxL3GtnsDtMgz9R6iSV-15" edge="1">
          <mxGeometry relative="1" as="geometry">
            <mxPoint x="310" y="139" as="targetPoint" />
          </mxGeometry>
        </mxCell>
        <mxCell id="3sxduq23NIOGUPckYZz3-17" style="edgeStyle=orthogonalEdgeStyle;rounded=1;orthogonalLoop=1;jettySize=auto;html=1;entryX=1;entryY=0.5;entryDx=0;entryDy=0;sketch=1;curveFitting=1;jiggle=2;" parent="1" source="3sxduq23NIOGUPckYZz3-8" edge="1">
          <mxGeometry relative="1" as="geometry">
            <mxPoint x="660" y="79" as="targetPoint" />
          </mxGeometry>
        </mxCell>
        <mxCell id="3sxduq23NIOGUPckYZz3-13" style="edgeStyle=orthogonalEdgeStyle;rounded=1;orthogonalLoop=1;jettySize=auto;html=1;sketch=1;curveFitting=1;jiggle=2;" parent="1" source="3sxduq23NIOGUPckYZz3-12" edge="1">
          <mxGeometry relative="1" as="geometry">
            <mxPoint x="470" y="139" as="targetPoint" />
          </mxGeometry>
        </mxCell>
        <mxCell id="pe-BNRBVFrE0Nd3to5kq-4" value="Messages" style="swimlane;startSize=20;horizontal=0;childLayout=treeLayout;horizontalTree=1;resizable=0;containerType=tree;fontSize=12;rounded=1;sketch=1;curveFitting=1;jiggle=2;" vertex="1" parent="1">
          <mxGeometry x="70" y="60" width="675" height="630" as="geometry" />
        </mxCell>
        <mxCell id="pe-BNRBVFrE0Nd3to5kq-35" style="edgeStyle=orthogonalEdgeStyle;rounded=1;sketch=1;hachureGap=4;jiggle=2;curveFitting=1;orthogonalLoop=1;jettySize=auto;html=1;entryX=0;entryY=0.5;entryDx=0;entryDy=0;fontFamily=Architects Daughter;fontSource=https%3A%2F%2Ffonts.googleapis.com%2Fcss%3Ffamily%3DArchitects%2BDaughter;fontSize=16;" edge="1" parent="pe-BNRBVFrE0Nd3to5kq-4" source="pe-BNRBVFrE0Nd3to5kq-5" target="pe-BNRBVFrE0Nd3to5kq-8">
          <mxGeometry relative="1" as="geometry" />
        </mxCell>
        <mxCell id="pe-BNRBVFrE0Nd3to5kq-5" value="InstantiateMsg" style="whiteSpace=wrap;html=1;rounded=1;sketch=1;curveFitting=1;jiggle=2;" vertex="1" parent="pe-BNRBVFrE0Nd3to5kq-4">
          <mxGeometry x="50" y="20" width="100" height="40" as="geometry" />
        </mxCell>
        <mxCell id="pe-BNRBVFrE0Nd3to5kq-8" value="Instantiate(owner)" style="whiteSpace=wrap;html=1;rounded=1;sketch=1;curveFitting=1;jiggle=2;" vertex="1" parent="pe-BNRBVFrE0Nd3to5kq-4">
          <mxGeometry x="200" y="20" width="450" height="40" as="geometry" />
        </mxCell>
        <mxCell id="pe-BNRBVFrE0Nd3to5kq-31" style="edgeStyle=orthogonalEdgeStyle;rounded=1;sketch=1;hachureGap=4;jiggle=2;curveFitting=1;orthogonalLoop=1;jettySize=auto;html=1;entryX=0;entryY=0.5;entryDx=0;entryDy=0;fontFamily=Architects Daughter;fontSource=https%3A%2F%2Ffonts.googleapis.com%2Fcss%3Ffamily%3DArchitects%2BDaughter;fontSize=16;" edge="1" parent="pe-BNRBVFrE0Nd3to5kq-4" source="pe-BNRBVFrE0Nd3to5kq-17" target="pe-BNRBVFrE0Nd3to5kq-25">
          <mxGeometry relative="1" as="geometry" />
        </mxCell>
        <mxCell id="pe-BNRBVFrE0Nd3to5kq-32" style="edgeStyle=orthogonalEdgeStyle;rounded=1;sketch=1;hachureGap=4;jiggle=2;curveFitting=1;orthogonalLoop=1;jettySize=auto;html=1;entryX=0;entryY=0.5;entryDx=0;entryDy=0;fontFamily=Architects Daughter;fontSource=https%3A%2F%2Ffonts.googleapis.com%2Fcss%3Ffamily%3DArchitects%2BDaughter;fontSize=16;" edge="1" parent="pe-BNRBVFrE0Nd3to5kq-4" source="pe-BNRBVFrE0Nd3to5kq-17" target="pe-BNRBVFrE0Nd3to5kq-26">
          <mxGeometry relative="1" as="geometry" />
        </mxCell>
        <mxCell id="pe-BNRBVFrE0Nd3to5kq-33" style="edgeStyle=orthogonalEdgeStyle;rounded=1;sketch=1;hachureGap=4;jiggle=2;curveFitting=1;orthogonalLoop=1;jettySize=auto;html=1;entryX=0;entryY=0.5;entryDx=0;entryDy=0;fontFamily=Architects Daughter;fontSource=https%3A%2F%2Ffonts.googleapis.com%2Fcss%3Ffamily%3DArchitects%2BDaughter;fontSize=16;" edge="1" parent="pe-BNRBVFrE0Nd3to5kq-4" source="pe-BNRBVFrE0Nd3to5kq-17" target="pe-BNRBVFrE0Nd3to5kq-24">
          <mxGeometry relative="1" as="geometry" />
        </mxCell>
        <mxCell id="pe-BNRBVFrE0Nd3to5kq-34" style="edgeStyle=orthogonalEdgeStyle;rounded=1;sketch=1;hachureGap=4;jiggle=2;curveFitting=1;orthogonalLoop=1;jettySize=auto;html=1;entryX=0;entryY=0.5;entryDx=0;entryDy=0;fontFamily=Architects Daughter;fontSource=https%3A%2F%2Ffonts.googleapis.com%2Fcss%3Ffamily%3DArchitects%2BDaughter;fontSize=16;" edge="1" parent="pe-BNRBVFrE0Nd3to5kq-4" source="pe-BNRBVFrE0Nd3to5kq-17" target="pe-BNRBVFrE0Nd3to5kq-27">
          <mxGeometry relative="1" as="geometry" />
        </mxCell>
        <mxCell id="pe-BNRBVFrE0Nd3to5kq-17" value="ExecuteMsg" style="whiteSpace=wrap;html=1;rounded=1;sketch=1;curveFitting=1;jiggle=2;" vertex="1" parent="pe-BNRBVFrE0Nd3to5kq-4">
          <mxGeometry x="40" y="250" width="100" height="40" as="geometry" />
        </mxCell>
        <mxCell id="pe-BNRBVFrE0Nd3to5kq-25" value="TransferTo(recipient, amount)" style="whiteSpace=wrap;html=1;rounded=1;sketch=1;curveFitting=1;jiggle=2;" vertex="1" parent="pe-BNRBVFrE0Nd3to5kq-4">
          <mxGeometry x="190" y="130" width="460" height="40" as="geometry" />
        </mxCell>
        <mxCell id="pe-BNRBVFrE0Nd3to5kq-24" value="ChangeOwner(new_owner)" style="whiteSpace=wrap;html=1;rounded=1;sketch=1;curveFitting=1;jiggle=2;" vertex="1" parent="pe-BNRBVFrE0Nd3to5kq-4">
          <mxGeometry x="190" y="290" width="460" height="40" as="geometry" />
        </mxCell>
        <mxCell id="pe-BNRBVFrE0Nd3to5kq-26" value="WithdrawFunds(recipient)" style="whiteSpace=wrap;html=1;rounded=1;sketch=1;curveFitting=1;jiggle=2;" vertex="1" parent="pe-BNRBVFrE0Nd3to5kq-4">
          <mxGeometry x="190" y="210" width="460" height="40" as="geometry" />
        </mxCell>
        <mxCell id="pe-BNRBVFrE0Nd3to5kq-27" value="TopUpAUDBalance()" style="whiteSpace=wrap;html=1;rounded=1;sketch=1;curveFitting=1;jiggle=2;" vertex="1" parent="pe-BNRBVFrE0Nd3to5kq-4">
          <mxGeometry x="190" y="370" width="460" height="40" as="geometry" />
        </mxCell>
        <mxCell id="pe-BNRBVFrE0Nd3to5kq-85" style="edgeStyle=orthogonalEdgeStyle;rounded=1;sketch=1;hachureGap=4;jiggle=2;curveFitting=1;orthogonalLoop=1;jettySize=auto;html=1;entryX=0;entryY=0.5;entryDx=0;entryDy=0;fontFamily=Architects Daughter;fontSource=https%3A%2F%2Ffonts.googleapis.com%2Fcss%3Ffamily%3DArchitects%2BDaughter;fontSize=16;" edge="1" parent="pe-BNRBVFrE0Nd3to5kq-4" source="pe-BNRBVFrE0Nd3to5kq-74" target="pe-BNRBVFrE0Nd3to5kq-84">
          <mxGeometry relative="1" as="geometry" />
        </mxCell>
        <mxCell id="pe-BNRBVFrE0Nd3to5kq-86" style="edgeStyle=orthogonalEdgeStyle;rounded=1;sketch=1;hachureGap=4;jiggle=2;curveFitting=1;orthogonalLoop=1;jettySize=auto;html=1;entryX=0;entryY=0.5;entryDx=0;entryDy=0;fontFamily=Architects Daughter;fontSource=https%3A%2F%2Ffonts.googleapis.com%2Fcss%3Ffamily%3DArchitects%2BDaughter;fontSize=16;" edge="1" parent="pe-BNRBVFrE0Nd3to5kq-4" source="pe-BNRBVFrE0Nd3to5kq-74" target="pe-BNRBVFrE0Nd3to5kq-83">
          <mxGeometry relative="1" as="geometry" />
        </mxCell>
        <mxCell id="pe-BNRBVFrE0Nd3to5kq-87" style="edgeStyle=orthogonalEdgeStyle;rounded=1;sketch=1;hachureGap=4;jiggle=2;curveFitting=1;orthogonalLoop=1;jettySize=auto;html=1;entryX=0;entryY=0.5;entryDx=0;entryDy=0;fontFamily=Architects Daughter;fontSource=https%3A%2F%2Ffonts.googleapis.com%2Fcss%3Ffamily%3DArchitects%2BDaughter;fontSize=16;" edge="1" parent="pe-BNRBVFrE0Nd3to5kq-4" source="pe-BNRBVFrE0Nd3to5kq-74" target="pe-BNRBVFrE0Nd3to5kq-82">
          <mxGeometry relative="1" as="geometry" />
        </mxCell>
        <mxCell id="pe-BNRBVFrE0Nd3to5kq-74" value="InstantiateMsg" style="whiteSpace=wrap;html=1;rounded=1;sketch=1;curveFitting=1;jiggle=2;shadow=0;absoluteArcSize=0;noLabel=0;portConstraintRotation=0;snapToPoint=0;fixDash=0;part=0;metaEdit=0;backgroundOutline=0;movableLabel=0;autosize=1;" vertex="1" parent="pe-BNRBVFrE0Nd3to5kq-4">
          <mxGeometry x="40" y="500" width="100" height="40" as="geometry" />
        </mxCell>
        <mxCell id="pe-BNRBVFrE0Nd3to5kq-82" value="InstantiateMsg" style="whiteSpace=wrap;html=1;rounded=1;sketch=1;curveFitting=1;jiggle=2;shadow=0;absoluteArcSize=0;noLabel=0;portConstraintRotation=0;snapToPoint=0;fixDash=0;part=0;metaEdit=0;backgroundOutline=0;movableLabel=0;autosize=1;" vertex="1" parent="pe-BNRBVFrE0Nd3to5kq-4">
          <mxGeometry x="190" y="570" width="460" height="40" as="geometry" />
        </mxCell>
        <mxCell id="pe-BNRBVFrE0Nd3to5kq-83" value="InstantiateMsg" style="whiteSpace=wrap;html=1;rounded=1;sketch=1;curveFitting=1;jiggle=2;shadow=0;absoluteArcSize=0;noLabel=0;portConstraintRotation=0;snapToPoint=0;fixDash=0;part=0;metaEdit=0;backgroundOutline=0;movableLabel=0;autosize=1;" vertex="1" parent="pe-BNRBVFrE0Nd3to5kq-4">
          <mxGeometry x="190" y="500" width="460" height="40" as="geometry" />
        </mxCell>
        <mxCell id="pe-BNRBVFrE0Nd3to5kq-84" value="InstantiateMsg" style="whiteSpace=wrap;html=1;rounded=1;sketch=1;curveFitting=1;jiggle=2;shadow=0;absoluteArcSize=0;noLabel=0;portConstraintRotation=0;snapToPoint=0;fixDash=0;part=0;metaEdit=0;backgroundOutline=0;movableLabel=0;autosize=1;" vertex="1" parent="pe-BNRBVFrE0Nd3to5kq-4">
          <mxGeometry x="195" y="430" width="460" height="40" as="geometry" />
        </mxCell>
      </root>
    </mxGraphModel>
  </diagram>
</mxfile>
